<svg xmlns="http://www.w3.org/2000/svg" xmlns:xlink="http://www.w3.org/1999/xlink" width="500" zoomAndPan="magnify" viewBox="0 0 375 374.999991" height="500" preserveAspectRatio="xMidYMid meet" version="1.0"><defs><clipPath id="560fbf148f"><path d="M 190 46.875 L 194 46.875 L 194 143 L 190 143 Z M 190 46.875 " clip-rule="nonzero"/></clipPath><clipPath id="5c0606ea2a"><path d="M 37.5 93 L 158 93 L 158 163 L 37.5 163 Z M 37.5 93 " clip-rule="nonzero"/></clipPath><clipPath id="a3a37ea6ac"><path d="M 107 217 L 173 217 L 173 328.125 L 107 328.125 Z M 107 217 " clip-rule="nonzero"/></clipPath><clipPath id="d2118dafe3"><path d="M 227 98 L 337.5 98 L 337.5 163 L 227 163 Z M 227 98 " clip-rule="nonzero"/></clipPath></defs><path fill="#000000" d="M 191.667969 127 L 192.121094 127 L 192.121094 149.839844 L 191.894531 149.839844 C 173.777344 149.839844 159.039062 164.578125 159.039062 182.695312 L 158.585938 182.695312 C 158.585938 164.40625 173.40625 149.507812 191.667969 149.390625 Z M 191.667969 127 " fill-opacity="1" fill-rule="nonzero"/><path fill="#000000" d="M 224.75 182.472656 L 247.589844 182.472656 L 247.589844 182.921875 L 225.203125 182.921875 C 225.078125 201.1875 210.1875 216.003906 191.894531 216.003906 L 191.894531 215.554688 C 210.011719 215.554688 224.75 200.816406 224.75 182.699219 Z M 224.75 182.472656 " fill-opacity="1" fill-rule="nonzero"/><path fill="#000000" d="M 247.136719 182.695312 L 248.042969 182.695312 C 248.042969 190.269531 246.554688 197.625 243.625 204.554688 C 243.519531 204.800781 243.414062 205.046875 243.308594 205.292969 L 242.480469 204.929688 C 242.585938 204.6875 242.691406 204.449219 242.792969 204.207031 C 245.675781 197.390625 247.136719 190.152344 247.136719 182.699219 Z M 239.96875 209.9375 L 240.753906 210.382812 C 239.894531 211.898438 238.957031 213.386719 237.957031 214.816406 L 237.214844 214.296875 C 238.195312 212.894531 239.121094 211.425781 239.96875 209.9375 Z M 191.441406 215.777344 L 192.347656 215.777344 L 192.347656 217.011719 L 191.441406 217.011719 Z M 232.660156 219.980469 L 233.328125 220.589844 C 232.765625 221.203125 232.183594 221.808594 231.597656 222.398438 C 226.445312 227.550781 220.441406 231.597656 213.753906 234.425781 C 213.441406 234.558594 213.117188 234.691406 212.800781 234.820312 L 212.464844 233.980469 C 212.777344 233.855469 213.09375 233.726562 213.402344 233.59375 C 219.980469 230.808594 225.890625 226.832031 230.960938 221.757812 C 231.539062 221.179688 232.109375 220.582031 232.664062 219.980469 Z M 191.441406 222.664062 L 192.347656 222.664062 L 192.347656 237.9375 C 194.628906 237.917969 196.917969 237.761719 199.152344 237.46875 L 199.269531 238.363281 C 196.847656 238.679688 194.367188 238.839844 191.894531 238.839844 L 191.441406 238.839844 L 191.441406 222.660156 Z M 191.441406 222.664062 " fill-opacity="1" fill-rule="nonzero"/><path fill="#000000" d="M 219.390625 87.398438 L 219.78125 87.558594 C 225.375 89.195312 230.859375 91.34375 236.09375 93.953125 C 241.242188 96.519531 246.199219 99.558594 250.824219 102.980469 L 251.144531 103.21875 L 250.914062 103.539062 L 200.238281 172.023438 L 199.921875 171.789062 C 198.640625 170.84375 197.238281 170.140625 195.746094 169.703125 L 195.371094 169.628906 L 195.453125 169.199219 Z M 250.039062 103.386719 C 245.539062 100.085938 240.730469 97.152344 235.738281 94.664062 C 230.664062 92.132812 225.339844 90.03125 219.914062 88.421875 L 196.320312 169.050781 C 197.648438 169.480469 198.90625 170.109375 200.070312 170.917969 Z M 98.878906 148.175781 L 99.324219 148.351562 L 179.320312 177.667969 L 179.167969 178.046875 C 178.898438 178.78125 178.707031 179.503906 178.570312 180.25 C 178.429688 181.042969 178.359375 181.84375 178.359375 182.699219 C 178.359375 184.300781 178.613281 185.789062 179.128906 187.25 L 179.320312 187.617188 L 178.898438 187.785156 L 98.75 216.527344 L 98.574219 216.164062 C 96.6875 210.898438 95.234375 205.417969 94.261719 199.867188 C 93.269531 194.214844 92.769531 188.441406 92.769531 182.699219 C 92.769531 176.84375 93.289062 170.949219 94.320312 165.1875 C 95.328125 159.542969 96.835938 153.972656 98.796875 148.617188 L 98.882812 148.175781 Z M 178.296875 178.132812 L 99.414062 149.226562 C 97.527344 154.433594 96.074219 159.847656 95.09375 165.324219 C 94.074219 171.042969 93.554688 176.886719 93.558594 182.699219 C 93.558594 188.394531 94.050781 194.121094 95.035156 199.726562 C 95.976562 205.105469 97.371094 210.417969 99.183594 215.527344 L 178.265625 187.167969 C 177.796875 185.730469 177.570312 184.265625 177.566406 182.695312 C 177.566406 181.792969 177.640625 180.949219 177.789062 180.105469 C 177.90625 179.441406 178.074219 178.792969 178.292969 178.132812 Z M 205.242188 185.035156 L 205.636719 185.105469 L 289.183594 201.863281 L 289.082031 202.257812 C 287.929688 208 286.257812 213.667969 284.105469 219.113281 C 281.996094 224.457031 279.398438 229.648438 276.390625 234.542969 L 276.234375 234.855469 L 275.863281 234.710938 L 275.828125 234.691406 L 203.21875 190.066406 L 203.472656 189.730469 C 204.289062 188.390625 204.859375 186.941406 205.167969 185.421875 Z M 288.230469 202.480469 L 205.859375 185.957031 C 205.546875 187.308594 205.039062 188.609375 204.335938 189.824219 L 275.910156 233.8125 C 278.816406 229.050781 281.324219 224.007812 283.371094 218.824219 C 285.460938 213.542969 287.09375 208.046875 288.230469 202.480469 Z M 288.230469 202.480469 " fill-opacity="1" fill-rule="nonzero"/><path fill="#000000" d="M 175.484375 92.378906 L 175.554688 92.660156 L 184.410156 139.308594 L 184.125 139.375 C 179.15625 140.320312 174.417969 142.109375 170.042969 144.691406 C 165.746094 147.230469 161.933594 150.460938 158.707031 154.289062 L 158.515625 154.546875 L 158.289062 154.324219 L 121.992188 123.738281 L 122.164062 123.503906 C 125.484375 119.566406 129.15625 115.882812 133.085938 112.554688 C 137.027344 109.21875 141.28125 106.191406 145.730469 103.558594 C 150.222656 100.898438 154.980469 98.613281 159.863281 96.761719 C 164.832031 94.875 170 93.417969 175.21875 92.429688 L 175.488281 92.378906 Z M 183.75 138.867188 L 175.050781 93.035156 C 169.949219 94.019531 164.910156 95.449219 160.058594 97.289062 C 155.207031 99.128906 150.480469 101.402344 146.015625 104.042969 C 141.59375 106.65625 137.367188 109.664062 133.449219 112.984375 C 129.617188 116.230469 126.027344 119.820312 122.777344 123.652344 L 158.449219 153.714844 C 161.683594 149.929688 165.484375 146.726562 169.757812 144.199219 C 174.109375 141.628906 178.816406 139.835938 183.753906 138.867188 Z M 214.34375 220.949219 L 214.464844 221.175781 L 237.839844 262.503906 L 237.59375 262.652344 C 230.863281 266.464844 223.648438 269.410156 216.15625 271.410156 C 208.4375 273.46875 200.46875 274.511719 192.464844 274.511719 L 192.417969 274.511719 C 187.269531 274.511719 182.097656 274.082031 177.050781 273.230469 L 176.761719 273.171875 L 176.8125 272.898438 L 184.722656 226.058594 L 185.011719 226.117188 C 187.429688 226.523438 189.925781 226.730469 192.425781 226.730469 C 200.132812 226.722656 207.414062 224.820312 214.070312 221.0625 L 214.105469 221.046875 L 214.347656 220.949219 Z M 237.074219 262.292969 L 214.105469 221.6875 C 207.429688 225.402344 200.136719 227.289062 192.421875 227.296875 C 189.988281 227.296875 187.554688 227.101562 185.179688 226.714844 L 177.414062 272.714844 C 182.339844 273.53125 187.386719 273.945312 192.417969 273.945312 L 192.460938 273.945312 C 200.417969 273.945312 208.339844 272.90625 216.003906 270.863281 C 223.367188 268.898438 230.453125 266.015625 237.070312 262.292969 Z M 237.074219 262.292969 " fill-opacity="1" fill-rule="nonzero"/><path fill="#000000" d="M 191.953125 98.480469 C 195.730469 98.480469 199.503906 98.738281 203.253906 99.25 L 203.488281 99.28125 L 202.8125 104.230469 L 202.578125 104.195312 C 195.199219 103.191406 187.703125 103.238281 180.308594 104.339844 L 180.074219 104.371094 L 179.339844 99.433594 L 179.574219 99.398438 C 183.679688 98.789062 187.820312 98.480469 191.953125 98.480469 Z M 202.960938 99.683594 C 195.304688 98.660156 187.539062 98.710938 179.875 99.828125 L 180.46875 103.839844 C 187.757812 102.777344 195.140625 102.730469 202.410156 103.699219 Z M 165.871094 102.625 L 167.429688 107.367188 L 167.203125 107.441406 C 159.5 109.96875 152.257812 113.640625 145.683594 118.351562 L 145.492188 118.488281 L 142.582031 114.433594 L 142.773438 114.296875 C 149.761719 109.289062 157.457031 105.386719 165.644531 102.695312 Z M 166.835938 107.070312 L 165.570312 103.21875 C 157.585938 105.863281 150.074219 109.671875 143.242188 114.542969 L 145.605469 117.835938 C 152.101562 113.207031 159.242188 109.585938 166.835938 107.070312 Z M 221.179688 103.753906 L 221.402344 103.835938 C 223.621094 104.667969 225.835938 105.609375 227.988281 106.628906 L 227.996094 106.636719 C 233.609375 109.296875 238.917969 112.570312 243.773438 116.359375 L 243.957031 116.503906 L 240.886719 120.441406 L 240.703125 120.296875 C 236.136719 116.730469 231.140625 113.648438 225.851562 111.144531 C 223.824219 110.183594 221.738281 109.296875 219.648438 108.511719 L 219.425781 108.429688 L 221.179688 103.757812 Z M 227.785156 107.054688 C 225.714844 106.074219 223.589844 105.167969 221.457031 104.359375 L 220.03125 108.15625 C 222.0625 108.921875 224.085938 109.785156 226.050781 110.71875 C 231.300781 113.207031 236.261719 116.253906 240.804688 119.78125 L 243.300781 116.585938 C 238.519531 112.878906 233.304688 109.671875 227.789062 107.058594 L 227.886719 106.84375 L 227.785156 107.058594 Z M 137.003906 118.828125 L 140.265625 122.609375 L 140.085938 122.761719 C 138.820312 123.855469 137.570312 125.007812 136.375 126.179688 L 136.207031 126.347656 L 132.707031 122.785156 L 132.875 122.617188 C 134.144531 121.371094 135.472656 120.148438 136.824219 118.984375 L 137 118.828125 Z M 139.605469 122.558594 L 136.957031 119.492188 C 135.734375 120.550781 134.53125 121.660156 133.378906 122.789062 L 136.21875 125.679688 C 137.3125 124.613281 138.449219 123.5625 139.605469 122.558594 Z M 254.105469 125.929688 L 254.261719 126.105469 C 259.585938 131.972656 264.054688 138.574219 267.542969 145.722656 L 267.644531 145.933594 L 263.160156 148.121094 L 263.054688 147.910156 C 259.773438 141.1875 255.570312 134.976562 250.566406 129.457031 L 250.410156 129.28125 L 254.109375 125.929688 Z M 267.015625 145.714844 C 263.597656 138.761719 259.242188 132.328125 254.074219 126.59375 L 251.070312 129.316406 C 255.984375 134.769531 260.121094 140.882812 263.371094 147.492188 L 267.011719 145.714844 Z M 129.023438 126.664062 L 132.761719 129.972656 L 132.609375 130.148438 C 127.683594 135.710938 123.554688 141.96875 120.339844 148.75 C 119.808594 149.863281 119.296875 151.011719 118.816406 152.15625 L 118.726562 152.371094 L 114.121094 150.441406 L 114.214844 150.226562 C 114.71875 149.015625 115.265625 147.796875 115.828125 146.609375 C 119.246094 139.40625 123.632812 132.753906 128.871094 126.839844 Z M 132.097656 130.015625 L 129.0625 127.328125 C 123.925781 133.164062 119.617188 139.714844 116.25 146.808594 C 115.722656 147.921875 115.210938 149.058594 114.734375 150.191406 L 118.46875 151.757812 C 118.925781 150.679688 119.410156 149.597656 119.910156 148.546875 C 123.109375 141.796875 127.210938 135.566406 132.097656 130.015625 Z M 112.222656 155.445312 L 116.949219 157.054688 L 116.875 157.277344 C 114.46875 164.351562 113.078125 171.714844 112.75 179.164062 L 112.738281 179.398438 L 107.75 179.179688 L 107.757812 178.941406 C 108.109375 171.019531 109.585938 163.191406 112.144531 155.667969 L 112.21875 155.445312 Z M 116.355469 157.347656 L 112.519531 156.042969 C 110.042969 163.382812 108.605469 171.011719 108.242188 178.730469 L 112.292969 178.910156 C 112.640625 171.578125 114.003906 164.324219 116.355469 157.347656 Z M 273.789062 163.117188 L 273.839844 163.34375 C 275.828125 171.738281 276.519531 180.339844 275.886719 188.910156 L 275.871094 189.144531 L 270.890625 188.777344 L 270.90625 188.539062 C 271.5 180.484375 270.851562 172.390625 268.980469 164.492188 L 268.925781 164.261719 L 273.785156 163.113281 Z M 275.433594 188.640625 C 276.027344 180.273438 275.355469 171.878906 273.4375 163.679688 L 269.496094 164.617188 C 271.320312 172.410156 271.957031 180.390625 271.394531 188.34375 Z M 113.277344 192.375 L 113.304688 192.609375 C 114.324219 200.636719 116.558594 208.441406 119.945312 215.804688 L 120.042969 216.019531 L 115.503906 218.101562 L 115.40625 217.890625 C 111.8125 210.0625 109.4375 201.769531 108.351562 193.238281 L 108.324219 193.007812 Z M 119.417969 215.789062 C 116.101562 208.515625 113.898438 200.816406 112.867188 192.902344 L 108.847656 193.410156 C 109.929688 201.738281 112.246094 209.832031 115.734375 217.480469 L 119.417969 215.785156 Z M 268.832031 201.601562 L 273.675781 202.8125 L 273.621094 203.039062 C 272.269531 208.429688 270.371094 213.730469 267.96875 218.789062 C 266.96875 220.890625 265.875 222.972656 264.714844 224.980469 L 264.597656 225.179688 L 260.277344 222.679688 L 260.394531 222.476562 C 261.484375 220.589844 262.515625 218.625 263.457031 216.648438 C 265.714844 211.882812 267.503906 206.898438 268.773438 201.828125 L 268.828125 201.597656 Z M 273.105469 203.152344 L 269.171875 202.171875 C 267.902344 207.195312 266.121094 212.132812 263.878906 216.855469 C 262.96875 218.773438 261.972656 220.675781 260.917969 222.511719 L 264.425781 224.542969 C 265.535156 222.613281 266.582031 220.613281 267.542969 218.589844 C 269.894531 213.628906 271.765625 208.4375 273.105469 203.15625 Z M 123.089844 221.933594 L 123.207031 222.136719 C 124.039062 223.589844 124.925781 225.035156 125.851562 226.429688 L 125.980469 226.628906 L 121.816406 229.378906 L 121.683594 229.183594 C 120.703125 227.699219 119.757812 226.164062 118.875 224.617188 L 118.757812 224.414062 Z M 125.328125 226.496094 C 124.488281 225.214844 123.679688 223.898438 122.914062 222.578125 L 119.398438 224.589844 C 120.207031 225.988281 121.0625 227.378906 121.949219 228.730469 Z M 257.617188 226.925781 L 261.753906 229.71875 L 261.625 229.914062 C 260.628906 231.390625 259.570312 232.851562 258.484375 234.257812 L 258.339844 234.441406 L 254.390625 231.390625 L 254.535156 231.203125 C 255.558594 229.882812 256.550781 228.507812 257.488281 227.121094 Z M 261.101562 229.84375 L 257.742188 227.574219 C 256.882812 228.839844 255.980469 230.09375 255.050781 231.300781 L 258.257812 233.777344 C 259.238281 232.5 260.195312 231.179688 261.101562 229.839844 Z M 128.886719 230.710938 L 129.03125 230.898438 C 133.570312 236.828125 138.921875 242.078125 144.9375 246.492188 L 145.125 246.632812 L 142.171875 250.65625 L 141.980469 250.519531 C 135.585938 245.820312 129.894531 240.238281 125.066406 233.933594 L 124.921875 233.746094 Z M 144.46875 246.734375 C 138.554688 242.363281 133.285156 237.199219 128.796875 231.371094 L 125.578125 233.835938 C 130.300781 239.96875 135.847656 245.40625 142.066406 250 Z M 250.089844 236.457031 L 253.75 239.855469 L 253.589844 240.03125 C 247.742188 246.324219 240.972656 251.675781 233.464844 255.925781 L 233.257812 256.039062 L 230.796875 251.695312 L 231.003906 251.582031 C 238.0625 247.578125 244.433594 242.550781 249.929688 236.628906 Z M 253.085938 239.878906 L 250.117188 237.121094 C 244.671875 242.949219 238.390625 247.910156 231.4375 251.875 L 233.433594 255.398438 C 240.75 251.230469 247.359375 246.011719 253.082031 239.878906 Z M 156.214844 253.40625 L 156.425781 253.511719 C 156.925781 253.761719 157.4375 254.011719 157.945312 254.253906 C 164.777344 257.492188 171.988281 259.738281 179.378906 260.925781 L 179.613281 260.960938 L 178.824219 265.890625 L 178.589844 265.855469 C 170.730469 264.59375 163.066406 262.210938 155.808594 258.761719 C 155.265625 258.507812 154.722656 258.238281 154.191406 257.976562 L 153.980469 257.871094 Z M 179.074219 261.351562 C 171.71875 260.148438 164.542969 257.902344 157.746094 254.679688 C 157.304688 254.472656 156.863281 254.253906 156.425781 254.039062 L 154.613281 257.664062 C 155.070312 257.894531 155.539062 258.121094 156.011719 258.339844 C 163.160156 261.730469 170.699219 264.089844 178.4375 265.355469 L 179.078125 261.355469 Z M 218.988281 257.125 L 220.679688 261.820312 L 220.460938 261.902344 C 212.984375 264.597656 205.183594 266.222656 197.273438 266.738281 L 197.039062 266.753906 L 196.714844 261.769531 L 196.949219 261.753906 C 204.390625 261.273438 211.730469 259.742188 218.765625 257.203125 Z M 220.078125 261.539062 L 218.703125 257.726562 C 211.769531 260.203125 204.542969 261.710938 197.214844 262.210938 L 197.476562 266.253906 C 205.183594 265.730469 212.785156 264.148438 220.078125 261.539062 Z M 186.21875 261.71875 L 186.453125 261.738281 C 188.121094 261.851562 189.8125 261.914062 191.480469 261.921875 L 191.71875 261.921875 C 191.71875 261.921875 191.691406 266.914062 191.691406 266.914062 L 191.457031 266.914062 C 189.679688 266.902344 187.882812 266.839844 186.113281 266.71875 L 185.878906 266.699219 Z M 191.246094 262.390625 C 189.71875 262.378906 188.179688 262.320312 186.65625 262.222656 L 186.378906 266.265625 C 187.984375 266.371094 189.613281 266.429688 191.226562 266.441406 Z M 191.246094 262.390625 " fill-opacity="1" fill-rule="nonzero"/><path fill="#000000" d="M 191.804688 143.019531 C 193.152344 143.019531 194.507812 143.085938 195.871094 143.222656 C 198.644531 143.503906 201.382812 144.070312 204.011719 144.910156 L 204.230469 144.980469 L 202.714844 149.71875 L 202.5 149.648438 C 200.199219 148.910156 197.800781 148.414062 195.375 148.171875 C 189.96875 147.628906 184.671875 148.320312 179.632812 150.226562 L 179.421875 150.308594 L 177.660156 145.65625 L 177.871094 145.574219 C 182.367188 143.871094 187.039062 143.015625 191.808594 143.015625 Z M 203.660156 145.273438 C 201.121094 144.480469 198.488281 143.941406 195.824219 143.671875 C 189.792969 143.0625 183.878906 143.820312 178.238281 145.917969 L 179.679688 149.726562 C 184.722656 147.851562 190.015625 147.175781 195.417969 147.71875 C 197.800781 147.960938 200.152344 148.441406 202.421875 149.148438 L 203.660156 145.269531 Z M 171.050781 148.9375 L 173.691406 153.15625 L 173.5 153.273438 C 172.132812 154.132812 170.8125 155.089844 169.578125 156.128906 L 169.402344 156.273438 L 166.203125 152.464844 L 166.378906 152.320312 C 167.789062 151.132812 169.296875 150.039062 170.859375 149.058594 L 171.050781 148.941406 Z M 173.070312 153.011719 L 170.910156 149.558594 C 169.496094 150.453125 168.128906 151.449219 166.84375 152.515625 L 169.460938 155.632812 C 170.605469 154.6875 171.816406 153.804688 173.070312 153.011719 Z M 216.804688 151.808594 L 216.980469 151.949219 C 220.148438 154.542969 222.898438 157.597656 225.140625 161.03125 C 227.398438 164.492188 229.097656 168.265625 230.183594 172.238281 L 230.242188 172.457031 L 225.441406 173.769531 L 225.382812 173.550781 C 223.496094 166.652344 219.394531 160.347656 213.832031 155.800781 L 213.65625 155.660156 Z M 229.683594 172.140625 C 228.609375 168.289062 226.949219 164.636719 224.757812 161.277344 C 222.582031 157.945312 219.929688 154.976562 216.867188 152.441406 L 214.292969 155.59375 C 219.78125 160.140625 223.839844 166.378906 225.757812 173.210938 Z M 162.222656 156.355469 L 165.957031 159.640625 L 165.808594 159.8125 C 161.015625 165.265625 158.097656 171.976562 157.367188 179.226562 L 157.34375 179.449219 L 152.390625 178.949219 L 152.414062 178.726562 C 153.25 170.441406 156.585938 162.761719 162.066406 156.527344 L 162.214844 156.355469 Z M 165.320312 159.679688 L 162.265625 156.992188 C 156.980469 163.070312 153.746094 170.511719 152.894531 178.546875 L 156.941406 178.953125 C 157.710938 171.769531 160.605469 165.117188 165.324219 159.679688 Z M 231.296875 177.929688 L 231.324219 178.152344 C 231.53125 179.980469 231.613281 181.84375 231.566406 183.691406 L 231.558594 183.917969 L 226.589844 183.789062 L 226.59375 183.5625 C 226.636719 181.949219 226.5625 180.316406 226.382812 178.722656 L 226.355469 178.496094 L 231.300781 177.929688 Z M 231.117188 183.453125 C 231.152344 181.777344 231.078125 180.089844 230.898438 178.429688 L 226.855469 178.890625 C 227.011719 180.363281 227.078125 181.859375 227.050781 183.347656 L 231.121094 183.453125 Z M 157.316406 185.691406 L 157.335938 185.917969 C 158.050781 193.671875 161.429688 201.058594 166.851562 206.71875 L 167.007812 206.882812 L 163.414062 210.324219 L 163.257812 210.160156 C 157.058594 203.691406 153.199219 195.242188 152.382812 186.375 L 152.363281 186.148438 Z M 166.367188 206.871094 C 161.019531 201.214844 157.667969 193.882812 156.90625 186.183594 L 152.851562 186.558594 C 153.695312 195.171875 157.445312 203.367188 163.425781 209.683594 L 166.363281 206.871094 Z M 225.796875 190.140625 L 230.648438 191.234375 L 230.601562 191.457031 C 229.605469 195.867188 227.878906 200.042969 225.46875 203.863281 C 223.121094 207.585938 220.183594 210.871094 216.742188 213.636719 L 216.566406 213.78125 L 213.449219 209.902344 L 213.628906 209.757812 C 219.730469 204.855469 224.035156 197.96875 225.746094 190.363281 Z M 230.109375 191.574219 L 226.140625 190.679688 C 224.390625 198.222656 220.121094 205.058594 214.089844 209.96875 L 216.636719 213.140625 C 219.964844 210.4375 222.808594 207.234375 225.089844 203.621094 C 227.433594 199.910156 229.125 195.855469 230.109375 191.574219 Z M 171.863281 211.046875 L 172.046875 211.175781 C 173.371094 212.101562 174.769531 212.9375 176.207031 213.667969 L 176.410156 213.769531 L 174.160156 218.203125 L 173.957031 218.101562 C 172.3125 217.269531 170.710938 216.308594 169.199219 215.253906 L 169.015625 215.121094 L 171.863281 211.042969 Z M 175.800781 213.964844 C 174.484375 213.285156 173.195312 212.515625 171.972656 211.671875 L 169.644531 215.007812 C 171.023438 215.960938 172.472656 216.828125 173.960938 217.597656 L 175.804688 213.964844 Z M 180.863281 215.609375 L 181.078125 215.679688 C 183.449219 216.453125 185.917969 216.972656 188.421875 217.226562 C 193.128906 217.699219 197.78125 217.230469 202.253906 215.832031 L 202.46875 215.765625 L 203.957031 220.511719 L 203.742188 220.578125 C 198.625 222.179688 193.300781 222.71875 187.925781 222.179688 C 185.070312 221.890625 182.246094 221.296875 179.535156 220.410156 L 179.320312 220.339844 Z M 191.960938 217.859375 C 190.769531 217.859375 189.574219 217.796875 188.375 217.675781 C 185.914062 217.429688 183.484375 216.921875 181.148438 216.179688 L 179.886719 220.050781 C 182.5 220.886719 185.214844 221.449219 187.96875 221.726562 C 193.207031 222.257812 198.390625 221.746094 203.386719 220.214844 L 202.167969 216.332031 C 198.847656 217.347656 195.425781 217.859375 191.957031 217.859375 Z M 191.960938 217.859375 " fill-opacity="1" fill-rule="nonzero"/><path fill="#000000" d="M 191.894531 150.472656 C 197.574219 150.472656 203.160156 151.96875 208.042969 154.808594 L 207.417969 155.882812 C 202.722656 153.15625 197.355469 151.714844 191.894531 151.714844 C 189.136719 151.714844 186.398438 152.078125 183.761719 152.792969 L 183.4375 151.59375 C 186.179688 150.847656 189.023438 150.472656 191.894531 150.472656 Z M 176.5 154.378906 L 177.097656 155.472656 C 175.609375 156.28125 174.179688 157.21875 172.839844 158.265625 L 172.074219 157.285156 C 173.464844 156.199219 174.957031 155.222656 176.5 154.378906 Z M 167.871094 161.21875 L 168.796875 162.046875 C 163.714844 167.730469 160.914062 175.066406 160.914062 182.699219 L 159.671875 182.699219 C 159.671875 174.757812 162.582031 167.128906 167.871094 161.21875 Z M 218.382812 164.339844 C 222.136719 169.746094 224.121094 176.09375 224.121094 182.695312 C 224.121094 184.023438 224.035156 185.359375 223.875 186.667969 L 222.640625 186.515625 C 222.796875 185.257812 222.871094 183.972656 222.871094 182.695312 C 222.871094 176.347656 220.96875 170.246094 217.359375 165.046875 L 218.378906 164.339844 Z M 161.210938 186.988281 C 161.441406 188.667969 161.816406 190.339844 162.324219 191.953125 L 161.136719 192.324219 C 160.609375 190.644531 160.21875 188.90625 159.976562 187.160156 Z M 221.480469 191.921875 L 222.667969 192.292969 C 222.144531 193.976562 221.472656 195.628906 220.679688 197.203125 L 219.570312 196.644531 C 220.335938 195.128906 220.976562 193.539062 221.480469 191.921875 Z M 164.441406 197.066406 C 167.988281 203.828125 173.875 209.03125 181.007812 211.710938 L 180.570312 212.875 C 173.152344 210.089844 167.03125 204.679688 163.339844 197.644531 L 164.441406 197.070312 Z M 215.601562 202.640625 L 216.550781 203.441406 C 213.828125 206.675781 210.554688 209.304688 206.820312 211.261719 C 202.980469 213.273438 198.835938 214.46875 194.5 214.816406 L 194.402344 213.578125 C 202.691406 212.914062 210.222656 209.03125 215.601562 202.644531 Z M 215.601562 202.640625 " fill-opacity="1" fill-rule="nonzero"/><path fill="#000000" d="M 123.90625 100.707031 L 165.789062 150.621094 L 165.3125 151.019531 C 147.847656 165.675781 145.558594 191.808594 160.214844 209.277344 C 167.3125 217.738281 177.285156 222.929688 188.289062 223.890625 C 199.292969 224.851562 210.011719 221.472656 218.472656 214.371094 C 226.933594 207.273438 232.125 197.300781 233.085938 186.300781 C 234.046875 175.292969 230.667969 164.574219 223.566406 156.113281 L 224.519531 155.3125 C 228.214844 159.71875 230.9375 164.71875 232.613281 170.167969 C 234.230469 175.433594 234.804688 180.898438 234.324219 186.40625 C 233.839844 191.917969 232.328125 197.195312 229.816406 202.101562 C 227.222656 207.179688 223.671875 211.628906 219.265625 215.324219 C 214.863281 219.019531 209.863281 221.742188 204.414062 223.417969 C 199.148438 225.035156 193.683594 225.609375 188.175781 225.128906 C 182.664062 224.644531 177.382812 223.132812 172.480469 220.621094 C 167.402344 218.027344 162.953125 214.480469 159.257812 210.070312 C 155.558594 205.667969 152.835938 200.667969 151.164062 195.21875 C 149.546875 189.957031 148.972656 184.488281 149.453125 178.980469 C 149.9375 173.46875 151.449219 168.191406 153.957031 163.285156 C 156.460938 158.390625 159.847656 154.082031 164.035156 150.464844 L 122.945312 101.5 L 123.898438 100.699219 Z M 123.90625 100.707031 " fill-opacity="1" fill-rule="nonzero"/><path fill="#000000" d="M 191.894531 133.519531 C 192.9375 133.519531 193.992188 133.550781 195.027344 133.617188 L 194.917969 135.308594 C 193.917969 135.246094 192.902344 135.214844 191.894531 135.214844 C 188.75 135.214844 185.601562 135.527344 182.546875 136.136719 L 182.214844 134.472656 C 185.382812 133.839844 188.640625 133.519531 191.898438 133.519531 Z M 200.730469 134.3125 C 209.4375 135.890625 217.578125 139.820312 224.265625 145.675781 L 223.148438 146.953125 C 216.691406 141.300781 208.832031 137.503906 200.429688 135.980469 Z M 168.929688 139.199219 L 169.722656 140.699219 C 168.09375 141.5625 166.496094 142.53125 164.980469 143.578125 L 164.015625 142.183594 C 165.589844 141.097656 167.242188 140.09375 168.929688 139.203125 Z M 161.96875 143.667969 L 163.003906 145.015625 C 156.199219 150.238281 150.929688 157.199219 147.765625 165.132812 L 146.191406 164.507812 C 149.464844 156.285156 154.925781 149.082031 161.96875 143.667969 Z M 226.125 147.390625 C 227.5 148.722656 228.804688 150.148438 230.011719 151.625 L 228.699219 152.699219 C 227.53125 151.269531 226.269531 149.894531 224.945312 148.609375 Z M 237.273438 163.714844 C 238.933594 167.675781 240.0625 171.847656 240.636719 176.109375 L 238.953125 176.335938 C 238.402344 172.21875 237.308594 168.191406 235.707031 164.367188 Z M 144.378906 169.96875 L 146.019531 170.40625 C 144.949219 174.394531 144.410156 178.53125 144.410156 182.699219 C 144.410156 189.339844 145.753906 195.761719 148.402344 201.789062 L 146.851562 202.46875 C 144.105469 196.226562 142.714844 189.578125 142.714844 182.699219 C 142.714844 178.382812 143.277344 174.097656 144.382812 169.96875 Z M 241.066406 181.839844 C 241.070312 182.128906 241.074219 182.414062 241.074219 182.703125 C 241.074219 191.296875 238.824219 199.75 234.570312 207.15625 L 233.101562 206.3125 C 237.207031 199.164062 239.378906 191 239.378906 182.703125 C 239.378906 182.425781 239.378906 182.148438 239.371094 181.871094 Z M 150.929688 206.726562 C 153.03125 210.300781 155.59375 213.59375 158.550781 216.511719 L 157.359375 217.714844 C 154.296875 214.695312 151.640625 211.285156 149.464844 207.585938 Z M 231.828125 208.402344 L 233.253906 209.320312 C 232.21875 210.921875 231.078125 212.484375 229.859375 213.960938 L 228.550781 212.882812 C 229.726562 211.457031 230.828125 209.949219 231.828125 208.402344 Z M 218.480469 222.046875 L 219.433594 223.453125 C 215.871094 225.863281 212.003906 227.800781 207.949219 229.199219 L 207.398438 227.59375 C 211.3125 226.242188 215.042969 224.375 218.480469 222.046875 Z M 169.511719 224.589844 C 171.140625 225.460938 172.832031 226.242188 174.550781 226.917969 L 173.929688 228.496094 C 172.152344 227.800781 170.398438 226.984375 168.710938 226.082031 Z M 176.851562 227.75 C 181.6875 229.367188 186.746094 230.183594 191.894531 230.183594 C 195.320312 230.183594 198.738281 229.816406 202.054688 229.09375 L 202.414062 230.75 C 198.980469 231.5 195.441406 231.878906 191.890625 231.878906 C 186.558594 231.878906 181.320312 231.03125 176.3125 229.359375 L 176.847656 227.75 Z M 176.851562 227.75 " fill-opacity="1" fill-rule="nonzero"/><path fill="#000000" d="M 193.335938 135.953125 C 218.132812 136.703125 238.035156 156.71875 238.648438 181.519531 L 237.855469 181.539062 C 237.257812 157.160156 217.691406 137.480469 193.3125 136.742188 Z M 193.335938 135.953125 " fill-opacity="1" fill-rule="nonzero"/><path fill="#000000" d="M 145.128906 182.695312 L 145.921875 182.695312 C 145.921875 207.753906 165.535156 227.941406 190.570312 228.652344 L 190.546875 229.441406 C 178.34375 229.09375 166.917969 224.078125 158.390625 215.316406 C 149.839844 206.539062 145.132812 194.953125 145.132812 182.695312 Z M 145.128906 182.695312 " fill-opacity="1" fill-rule="nonzero"/><path fill="#000000" d="M 191.894531 116.65625 L 191.894531 117.898438 C 156.164062 117.898438 127.101562 146.96875 127.101562 182.695312 C 127.101562 218.421875 156.167969 247.492188 191.894531 247.492188 C 227.625 247.492188 256.691406 218.421875 256.691406 182.695312 L 257.9375 182.695312 C 257.9375 191.609375 256.191406 200.261719 252.746094 208.402344 C 249.417969 216.265625 244.65625 223.328125 238.589844 229.394531 C 232.527344 235.457031 225.464844 240.21875 217.597656 243.546875 C 209.457031 246.988281 200.808594 248.738281 191.894531 248.738281 C 182.980469 248.738281 174.328125 246.992188 166.1875 243.546875 C 158.324219 240.222656 151.257812 235.460938 145.195312 229.394531 C 139.132812 223.328125 134.371094 216.265625 131.042969 208.402344 C 127.597656 200.257812 125.851562 191.609375 125.851562 182.695312 C 125.851562 173.78125 127.597656 165.128906 131.042969 156.988281 C 134.367188 149.128906 139.128906 142.0625 145.195312 136 C 151.257812 129.933594 158.320312 125.171875 166.1875 121.84375 C 174.332031 118.402344 182.980469 116.652344 191.894531 116.652344 Z M 191.894531 116.65625 " fill-opacity="1" fill-rule="nonzero"/><path fill="#000000" d="M 195.230469 120.019531 C 207.957031 120.6875 220.023438 125.144531 230.128906 132.914062 C 235.019531 136.675781 239.320312 141.121094 242.917969 146.132812 C 246.558594 151.203125 249.414062 156.761719 251.398438 162.65625 L 250.003906 163.125 C 242.058594 139.519531 220.015625 122.785156 195.15625 121.484375 L 195.234375 120.015625 Z M 195.230469 120.019531 " fill-opacity="1" fill-rule="nonzero"/><path fill="#000000" d="M 191.894531 106.359375 C 193.242188 106.359375 194.609375 106.394531 195.953125 106.464844 L 196.234375 106.480469 L 195.863281 113.59375 L 195.578125 113.578125 C 194.359375 113.515625 193.117188 113.480469 191.894531 113.480469 C 190.363281 113.480469 188.820312 113.53125 187.296875 113.632812 L 187.015625 113.648438 L 186.546875 106.542969 L 186.828125 106.523438 C 188.503906 106.414062 190.207031 106.359375 191.894531 106.359375 Z M 195.640625 107.015625 C 194.398438 106.953125 193.140625 106.925781 191.894531 106.925781 C 190.316406 106.925781 188.722656 106.972656 187.148438 107.070312 L 187.542969 113.050781 C 188.984375 112.960938 190.445312 112.917969 191.894531 112.917969 C 193.035156 112.917969 194.1875 112.941406 195.328125 113 Z M 168.40625 110.042969 L 170.621094 116.808594 L 170.351562 116.898438 C 163.394531 119.175781 156.863281 122.539062 150.9375 126.894531 L 150.710938 127.0625 L 146.488281 121.324219 L 146.71875 121.15625 C 153.25 116.351562 160.457031 112.640625 168.136719 110.128906 Z M 169.910156 116.449219 L 168.046875 110.753906 C 160.613281 113.21875 153.628906 116.8125 147.28125 121.445312 L 150.832031 126.273438 C 156.667969 122.019531 163.082031 118.714844 169.910156 116.449219 Z M 136.050781 130.648438 L 141.28125 135.484375 L 141.089844 135.695312 C 135.667969 141.550781 131.335938 148.222656 128.214844 155.527344 L 128.101562 155.785156 L 121.554688 152.988281 L 121.664062 152.730469 C 125.109375 144.671875 129.882812 137.3125 135.859375 130.855469 Z M 264.171875 158.054688 L 264.261719 158.320312 C 266.835938 165.960938 268.167969 173.953125 268.234375 182.085938 L 268.234375 182.367188 C 268.234375 182.367188 261.113281 182.421875 261.113281 182.421875 L 261.113281 182.140625 C 261.050781 174.765625 259.839844 167.519531 257.511719 160.597656 L 257.421875 160.328125 Z M 119.085938 159.691406 L 125.886719 161.808594 L 125.800781 162.078125 C 125.3125 163.648438 124.875 165.25 124.5 166.851562 L 124.4375 167.125 L 117.5 165.5 L 117.566406 165.222656 C 117.980469 163.460938 118.460938 161.691406 119 159.960938 L 119.082031 159.691406 Z M 116.484375 170.765625 L 123.527344 171.84375 L 123.484375 172.125 C 122.953125 175.597656 122.679688 179.152344 122.679688 182.699219 C 122.679688 186.480469 122.988281 190.273438 123.59375 193.972656 L 123.636719 194.25 L 116.609375 195.398438 L 116.5625 195.121094 C 115.894531 191.042969 115.554688 186.859375 115.554688 182.695312 C 115.554688 178.792969 115.851562 174.871094 116.441406 171.042969 L 116.480469 170.761719 Z M 122.882812 172.316406 L 116.960938 171.410156 C 116.40625 175.121094 116.125 178.917969 116.125 182.695312 C 116.125 186.734375 116.445312 190.789062 117.078125 194.75 L 122.992188 193.78125 C 122.410156 190.140625 122.117188 186.410156 122.117188 182.695312 C 122.117188 179.21875 122.375 175.730469 122.882812 172.316406 Z M 260.96875 187.234375 L 268.074219 187.722656 L 268.054688 188.007812 C 267.929688 189.8125 267.738281 191.640625 267.488281 193.429688 L 267.449219 193.707031 L 260.394531 192.714844 L 260.433594 192.433594 C 260.664062 190.8125 260.835938 189.15625 260.949219 187.519531 Z M 126.871094 206.464844 L 126.96875 206.730469 C 129.726562 214.175781 133.722656 221.050781 138.851562 227.160156 L 139.03125 227.375 L 133.578125 231.953125 L 133.394531 231.738281 C 127.738281 224.996094 123.332031 217.414062 120.289062 209.203125 L 120.191406 208.9375 Z M 241.484375 230.992188 L 246.566406 235.984375 L 246.367188 236.1875 C 240.691406 241.96875 234.175781 246.785156 227.007812 250.503906 L 226.757812 250.636719 L 223.476562 244.3125 L 223.726562 244.183594 C 230.230469 240.808594 236.136719 236.441406 241.285156 231.195312 Z M 143.402344 232.085938 L 143.605469 232.285156 C 144.78125 233.429688 146.011719 234.546875 147.269531 235.605469 L 147.484375 235.789062 L 142.890625 241.230469 L 142.671875 241.050781 C 141.289062 239.878906 139.933594 238.648438 138.636719 237.382812 L 138.433594 237.1875 L 143.402344 232.082031 Z M 146.6875 235.855469 C 145.570312 234.902344 144.46875 233.902344 143.414062 232.882812 L 139.230469 237.175781 C 140.390625 238.292969 141.59375 239.390625 142.820312 240.433594 Z M 151.277344 238.75 L 151.507812 238.914062 C 157.476562 243.210938 164.042969 246.507812 171.023438 248.710938 L 171.292969 248.796875 L 169.148438 255.589844 L 168.878906 255.503906 C 161.171875 253.070312 153.929688 249.433594 147.347656 244.695312 L 147.117188 244.53125 Z M 219.128906 246.355469 L 221.910156 252.914062 L 221.648438 253.023438 C 219.980469 253.726562 218.269531 254.378906 216.558594 254.964844 L 216.289062 255.054688 L 213.988281 248.3125 L 214.257812 248.222656 C 215.808594 247.695312 217.359375 247.101562 218.871094 246.460938 L 219.128906 246.351562 Z M 221.167969 252.613281 L 218.828125 247.097656 C 217.476562 247.664062 216.09375 248.191406 214.707031 248.667969 L 216.644531 254.339844 C 218.164062 253.816406 219.683594 253.234375 221.167969 252.613281 Z M 207.820312 250.078125 L 209.425781 257.019531 L 209.152344 257.082031 C 203.527344 258.382812 197.726562 259.039062 191.902344 259.039062 C 188.972656 259.039062 186.019531 258.871094 183.125 258.539062 L 182.84375 258.507812 L 183.65625 251.429688 L 183.9375 251.464844 C 186.5625 251.765625 189.242188 251.917969 191.902344 251.917969 C 197.1875 251.917969 202.453125 251.320312 207.546875 250.140625 Z M 207.820312 250.078125 " fill-opacity="1" fill-rule="nonzero"/><path fill="#000000" d="M 250.960938 162.773438 L 251.171875 162.703125 C 250.355469 160.3125 249.402344 157.972656 248.3125 155.695312 L 247.898438 154.84375 C 247.761719 154.5625 247.628906 154.277344 247.472656 154 L 246.582031 152.328125 L 245.632812 150.691406 C 245.550781 150.554688 245.476562 150.417969 245.390625 150.28125 L 245.136719 149.882812 L 244.632812 149.082031 C 243.273438 146.957031 241.789062 144.910156 240.191406 142.957031 C 238.582031 141.011719 236.851562 139.164062 235.03125 137.421875 C 235.050781 136.949219 235.066406 136.472656 235.074219 135.992188 C 235.082031 135.753906 235.089844 135.511719 235.089844 135.273438 L 235.089844 134.558594 C 235.089844 134.558594 233.886719 133.5 233.886719 133.5 C 233.480469 133.152344 233.0625 132.820312 232.652344 132.480469 L 232.03125 131.972656 C 231.824219 131.808594 231.609375 131.648438 231.398438 131.488281 L 230.125 130.519531 L 228.820312 129.59375 C 228.601562 129.441406 228.382812 129.285156 228.164062 129.136719 L 227.496094 128.699219 C 227.046875 128.40625 226.605469 128.109375 226.152344 127.828125 L 224.785156 127 C 223.875 127.269531 222.957031 127.597656 222.070312 127.914062 L 221.351562 127.511719 C 221.109375 127.378906 220.863281 127.261719 220.621094 127.132812 L 219.148438 126.390625 C 218.152344 125.933594 217.164062 125.449219 216.140625 125.039062 L 215.378906 124.71875 C 215.253906 124.664062 215.128906 124.613281 215 124.5625 L 214.613281 124.414062 L 213.070312 123.832031 C 212.558594 123.644531 212.03125 123.480469 211.511719 123.300781 L 210.730469 123.039062 L 209.9375 122.808594 C 207.839844 122.152344 205.691406 121.664062 203.535156 121.242188 L 201.914062 120.957031 C 201.644531 120.902344 201.367188 120.875 201.097656 120.835938 L 199.464844 120.609375 C 199.191406 120.578125 198.917969 120.554688 198.644531 120.527344 L 197.003906 120.363281 L 196.984375 120.585938 C 203.007812 121.078125 208.960938 122.445312 214.589844 124.648438 C 220.21875 126.851562 225.519531 129.878906 230.277344 133.605469 C 235.035156 137.328125 239.253906 141.75 242.75 146.679688 C 246.25 151.605469 249.027344 157.050781 250.957031 162.773438 Z M 250.960938 162.773438 " fill-opacity="1" fill-rule="nonzero"/><path fill="#000000" d="M 238.160156 217.5625 L 238.339844 217.699219 C 240.59375 214.703125 242.566406 211.492188 244.210938 208.121094 C 245.851562 204.75 247.167969 201.21875 248.125 197.59375 C 250.046875 190.34375 250.535156 182.71875 249.574219 175.277344 C 248.617188 167.835938 246.214844 160.585938 242.523438 154.058594 C 240.679688 150.792969 238.515625 147.707031 236.074219 144.863281 C 233.632812 142.015625 230.910156 139.410156 227.96875 137.082031 C 222.085938 132.425781 215.304688 128.914062 208.097656 126.828125 C 200.894531 124.738281 193.28125 124.074219 185.820312 124.863281 C 178.359375 125.644531 171.054688 127.878906 164.441406 131.417969 C 161.132812 133.183594 158 135.277344 155.097656 137.652344 C 152.195312 140.027344 149.527344 142.6875 147.132812 145.574219 C 146.574219 145.699219 146 145.828125 145.4375 145.972656 C 144.871094 146.121094 144.304688 146.269531 143.734375 146.429688 C 142.148438 148.542969 140.695312 150.753906 139.390625 153.054688 L 139.445312 153.492188 L 139.511719 153.929688 L 139.652344 154.796875 C 139.699219 155.085938 139.742188 155.367188 139.800781 155.65625 L 139.964844 156.511719 C 137.039062 162.289062 135.089844 168.566406 134.246094 174.988281 C 133.394531 181.414062 133.625 187.980469 134.914062 194.328125 L 135.136719 194.285156 C 134.660156 191.925781 134.328125 189.535156 134.136719 187.136719 C 134.109375 186.839844 134.09375 186.535156 134.078125 186.238281 L 134.023438 185.335938 L 133.992188 184.433594 C 133.984375 184.132812 133.96875 183.832031 133.972656 183.53125 C 133.96875 182.929688 133.957031 182.328125 133.972656 181.726562 L 133.988281 180.824219 L 134.027344 179.921875 C 134.046875 179.320312 134.101562 178.722656 134.140625 178.121094 C 134.160156 177.820312 134.191406 177.519531 134.21875 177.222656 L 134.304688 176.320312 L 134.414062 175.425781 C 134.453125 175.125 134.484375 174.828125 134.53125 174.53125 C 134.625 173.9375 134.703125 173.339844 134.816406 172.75 C 135.230469 170.378906 135.78125 168.03125 136.488281 165.730469 C 137.90625 161.128906 139.882812 156.699219 142.402344 152.59375 C 143.65625 150.539062 145.039062 148.5625 146.53125 146.671875 C 148.03125 144.789062 149.644531 142.996094 151.359375 141.304688 C 153.074219 139.617188 154.902344 138.046875 156.8125 136.578125 C 158.726562 135.121094 160.738281 133.789062 162.816406 132.578125 C 164.902344 131.375 167.058594 130.292969 169.277344 129.359375 C 169.832031 129.128906 170.386719 128.894531 170.949219 128.683594 C 171.230469 128.574219 171.511719 128.464844 171.792969 128.359375 L 173.070312 127.902344 L 173.5 127.761719 L 174.355469 127.480469 L 175.21875 127.21875 L 175.652344 127.085938 L 176.085938 126.964844 L 176.957031 126.71875 L 177.832031 126.5 C 178.414062 126.34375 179.003906 126.222656 179.589844 126.085938 C 180.769531 125.835938 181.949219 125.609375 183.144531 125.429688 C 184.332031 125.242188 185.53125 125.109375 186.730469 124.992188 C 187.328125 124.949219 187.925781 124.890625 188.53125 124.863281 L 189.433594 124.8125 L 190.335938 124.78125 L 190.785156 124.769531 L 191.238281 124.769531 C 191.238281 124.769531 192.140625 124.757812 192.140625 124.757812 L 193.039062 124.773438 C 193.34375 124.773438 193.640625 124.78125 193.941406 124.796875 L 194.84375 124.832031 C 195.148438 124.84375 195.445312 124.867188 195.746094 124.886719 C 196.347656 124.917969 196.949219 124.980469 197.546875 125.03125 C 199.941406 125.261719 202.324219 125.648438 204.671875 126.171875 C 207.019531 126.710938 209.335938 127.378906 211.597656 128.199219 C 213.859375 129.023438 216.074219 129.976562 218.21875 131.078125 C 220.359375 132.175781 222.433594 133.402344 224.429688 134.753906 C 226.417969 136.113281 228.324219 137.589844 230.140625 139.171875 C 231.949219 140.761719 233.660156 142.460938 235.261719 144.257812 C 236.859375 146.058594 238.339844 147.964844 239.707031 149.945312 C 241.066406 151.929688 242.296875 154.003906 243.40625 156.140625 C 244.5 158.285156 245.476562 160.492188 246.300781 162.753906 C 247.117188 165.015625 247.816406 167.324219 248.347656 169.671875 L 248.550781 170.554688 L 248.726562 171.441406 L 248.816406 171.882812 L 248.894531 172.328125 L 249.054688 173.21875 C 249.238281 174.40625 249.414062 175.597656 249.527344 176.796875 C 250.027344 181.589844 249.914062 186.4375 249.214844 191.203125 C 248.859375 193.582031 248.363281 195.941406 247.71875 198.261719 C 247.066406 200.578125 246.28125 202.859375 245.347656 205.078125 C 244.410156 207.296875 243.347656 209.457031 242.144531 211.546875 C 240.941406 213.628906 239.609375 215.640625 238.164062 217.566406 Z M 238.160156 217.5625 " fill-opacity="1" fill-rule="nonzero"/><path fill="#000000" d="M 134.640625 194.390625 C 135.578125 198.984375 137.066406 203.457031 139.058594 207.6875 L 137.832031 208.265625 C 135.789062 203.9375 134.269531 199.359375 133.308594 194.660156 Z M 142.5625 214.046875 C 143.480469 215.488281 144.46875 216.90625 145.507812 218.257812 L 144.433594 219.082031 C 143.371094 217.699219 142.355469 216.25 141.417969 214.773438 L 142.5625 214.042969 Z M 238.558594 217.867188 L 239.640625 218.683594 C 234.90625 224.972656 229.09375 230.179688 222.375 234.152344 L 221.683594 232.984375 C 228.25 229.101562 233.929688 224.015625 238.558594 217.867188 Z M 149.121094 222.519531 C 151.433594 225 153.992188 227.304688 156.726562 229.359375 C 160.082031 231.890625 163.699219 234.054688 167.480469 235.800781 L 166.914062 237.03125 C 163.042969 235.25 159.339844 233.03125 155.910156 230.445312 C 153.113281 228.339844 150.496094 225.980469 148.128906 223.445312 Z M 216.746094 235.597656 L 217.324219 236.824219 C 215.742188 237.566406 214.109375 238.242188 212.46875 238.84375 L 212.003906 237.570312 C 213.609375 236.984375 215.203125 236.320312 216.75 235.597656 Z M 205.039062 239.632812 L 205.34375 240.957031 C 200.925781 241.972656 196.386719 242.488281 191.851562 242.488281 C 187.964844 242.488281 184.066406 242.109375 180.261719 241.359375 L 180.527344 240.027344 C 184.242188 240.761719 188.050781 241.132812 191.851562 241.132812 C 196.28125 241.132812 200.71875 240.628906 205.039062 239.632812 Z M 205.039062 239.632812 " fill-opacity="1" fill-rule="nonzero"/><path fill="#000000" d="M 192.121094 141.761719 C 199.320312 141.761719 206.398438 143.65625 212.59375 147.238281 L 212.125 148.050781 C 206.074219 144.550781 199.15625 142.707031 192.121094 142.707031 Z M 192.121094 141.761719 " fill-opacity="1" fill-rule="nonzero"/><g clip-path="url(#560fbf148f)"><path fill="#000000" d="M 190.828125 46.933594 L 193.414062 46.933594 L 193.414062 142.234375 L 190.828125 142.234375 Z M 190.828125 46.933594 " fill-opacity="1" fill-rule="nonzero"/></g><path fill="#000000" d="M 136.402344 86.429688 L 136.605469 86.3125 L 171.984375 147.585938 L 171.78125 147.703125 Z M 136.402344 86.429688 " fill-opacity="1" fill-rule="nonzero"/><g clip-path="url(#5c0606ea2a)"><path fill="#000000" d="M 37.96875 93.15625 L 82.972656 119.136719 L 82.503906 119.953125 L 37.5 93.96875 Z M 96.210938 126.78125 L 105.578125 132.1875 L 105.109375 133 L 95.742188 127.59375 Z M 115.757812 138.066406 L 157.300781 162.050781 L 156.828125 162.863281 L 115.289062 138.878906 Z M 115.757812 138.066406 " fill-opacity="1" fill-rule="nonzero"/></g><path fill="#000000" d="M 75.917969 181.402344 L 151.65625 181.402344 L 151.65625 183.988281 L 75.917969 183.988281 Z M 75.917969 181.402344 " fill-opacity="1" fill-rule="nonzero"/><path fill="#000000" d="M 46.914062 265.855469 L 157.480469 202.019531 L 158.066406 203.035156 L 47.5 266.871094 Z M 46.914062 265.855469 " fill-opacity="1" fill-rule="nonzero"/><g clip-path="url(#a3a37ea6ac)"><path fill="#000000" d="M 107.644531 327.132812 L 171.070312 217.273438 L 172.699219 218.214844 L 109.273438 328.074219 Z M 107.644531 327.132812 " fill-opacity="1" fill-rule="nonzero"/></g><path fill="#000000" d="M 191.53125 222.585938 L 192.707031 222.585938 L 192.707031 293.398438 L 191.53125 293.398438 Z M 191.53125 222.585938 " fill-opacity="1" fill-rule="nonzero"/><path fill="#000000" d="M 212.304688 216.953125 L 233.179688 253.109375 L 232.570312 253.460938 L 211.695312 217.304688 Z M 240.820312 266.34375 L 246.230469 275.710938 L 245.617188 276.0625 L 240.210938 266.695312 Z M 252.109375 285.890625 L 276.09375 327.433594 L 275.480469 327.785156 L 251.5 286.242188 Z M 252.109375 285.890625 " fill-opacity="1" fill-rule="nonzero"/><path fill="#000000" d="M 227 203.242188 L 227.355469 202.632812 L 312.617188 251.859375 L 312.265625 252.46875 Z M 227 203.242188 " fill-opacity="1" fill-rule="nonzero"/><path fill="#000000" d="M 232.585938 182.578125 L 304.136719 182.578125 L 304.136719 182.8125 L 232.585938 182.8125 Z M 232.585938 182.578125 " fill-opacity="1" fill-rule="nonzero"/><g clip-path="url(#d2118dafe3)"><path fill="#000000" d="M 227.585938 161.140625 L 336.566406 98.222656 L 337.507812 99.851562 L 228.527344 162.773438 Z M 227.585938 161.140625 " fill-opacity="1" fill-rule="nonzero"/></g><path fill="#000000" d="M 212.046875 147.457031 L 249.914062 81.867188 L 250.523438 82.21875 L 212.65625 147.808594 Z M 212.046875 147.457031 " fill-opacity="1" fill-rule="nonzero"/></svg>