<svg xmlns="http://www.w3.org/2000/svg" xmlns:xlink="http://www.w3.org/1999/xlink" width="500" zoomAndPan="magnify" viewBox="0 0 375 374.999991" height="500" preserveAspectRatio="xMidYMid meet" version="1.0"><defs><clipPath id="4cba7462af"><path d="M 291 300 L 337.5 300 L 337.5 327.75 L 291 327.75 Z M 291 300 " clip-rule="nonzero"/></clipPath><clipPath id="27e45d18f2"><path d="M 164 300 L 211 300 L 211 327.75 L 164 327.75 Z M 164 300 " clip-rule="nonzero"/></clipPath><clipPath id="51ee7bc01b"><path d="M 37.5 300 L 84 300 L 84 327.75 L 37.5 327.75 Z M 37.5 300 " clip-rule="nonzero"/></clipPath><clipPath id="726489337b"><path d="M 291 173 L 337.5 173 L 337.5 202 L 291 202 Z M 291 173 " clip-rule="nonzero"/></clipPath><clipPath id="c55669ef2b"><path d="M 37.5 173 L 84 173 L 84 202 L 37.5 202 Z M 37.5 173 " clip-rule="nonzero"/></clipPath><clipPath id="2dfd2e3596"><path d="M 291 47.25 L 337.5 47.25 L 337.5 75 L 291 75 Z M 291 47.25 " clip-rule="nonzero"/></clipPath><clipPath id="ba057f94a3"><path d="M 164 47.25 L 211 47.25 L 211 75 L 164 75 Z M 164 47.25 " clip-rule="nonzero"/></clipPath><clipPath id="c0bf93b632"><path d="M 37.5 47.25 L 84 47.25 L 84 75 L 37.5 75 Z M 37.5 47.25 " clip-rule="nonzero"/></clipPath></defs><path fill="#1a181a" d="M 229.28125 116.605469 L 252.214844 122.066406 C 252.558594 122.148438 252.839844 122.429688 252.921875 122.769531 L 258.382812 145.707031 C 258.484375 146.144531 258.3125 146.535156 257.921875 146.753906 C 257.527344 146.972656 257.105469 146.914062 256.785156 146.597656 L 228.390625 118.203125 C 228.070312 117.882812 228.015625 117.460938 228.234375 117.066406 C 228.453125 116.671875 228.847656 116.5 229.28125 116.605469 Z M 226.996094 119.59375 L 255.390625 147.992188 C 256.324219 148.925781 257.730469 149.121094 258.882812 148.476562 C 260.035156 147.832031 260.605469 146.535156 260.300781 145.25 L 254.835938 122.316406 C 254.808594 122.199219 254.773438 122.078125 254.722656 121.945312 C 254.65625 121.773438 254.699219 121.578125 254.828125 121.445312 L 256.183594 120.09375 C 256.566406 119.707031 256.566406 119.082031 256.183594 118.699219 C 255.40625 117.921875 255.40625 116.660156 256.183594 115.886719 C 256.957031 115.109375 258.21875 115.109375 258.996094 115.886719 C 259.769531 116.660156 259.769531 117.921875 258.996094 118.699219 C 258.613281 119.082031 258.613281 119.707031 258.996094 120.09375 C 259.378906 120.476562 260.003906 120.476562 260.390625 120.09375 C 261.933594 118.546875 261.933594 116.035156 260.390625 114.492188 C 258.84375 112.949219 256.332031 112.949219 254.789062 114.492188 C 253.601562 115.679688 253.296875 117.496094 254.027344 119.011719 C 254.113281 119.195312 254.078125 119.410156 253.9375 119.550781 L 253.378906 120.109375 C 253.253906 120.234375 253.070312 120.277344 252.902344 120.222656 L 252.828125 120.199219 C 252.777344 120.179688 252.726562 120.164062 252.671875 120.148438 L 229.738281 114.6875 C 228.453125 114.382812 227.15625 114.953125 226.511719 116.105469 C 225.867188 117.257812 226.0625 118.660156 226.996094 119.59375 " fill-opacity="1" fill-rule="nonzero"/><path fill="#1a181a" d="M 258.382812 229.269531 L 252.921875 252.203125 C 252.839844 252.546875 252.558594 252.824219 252.214844 252.90625 L 229.28125 258.371094 C 228.84375 258.472656 228.453125 258.300781 228.234375 257.910156 C 228.011719 257.515625 228.070312 257.09375 228.390625 256.773438 L 256.785156 228.378906 C 257.105469 228.058594 257.527344 228 257.921875 228.21875 C 258.316406 228.441406 258.484375 228.832031 258.382812 229.269531 Z M 255.390625 226.984375 L 226.996094 255.378906 C 226.0625 256.3125 225.867188 257.714844 226.511719 258.871094 C 227.15625 260.023438 228.453125 260.59375 229.738281 260.285156 L 252.671875 254.824219 C 252.789062 254.796875 252.910156 254.757812 253.042969 254.707031 C 253.214844 254.644531 253.410156 254.683594 253.539062 254.816406 L 254.894531 256.167969 C 255.277344 256.554688 255.90625 256.554688 256.289062 256.167969 C 257.0625 255.394531 258.328125 255.394531 259.101562 256.167969 C 259.875 256.945312 259.875 258.207031 259.101562 258.984375 C 258.328125 259.757812 257.0625 259.757812 256.289062 258.984375 C 255.90625 258.597656 255.277344 258.597656 254.894531 258.984375 C 254.511719 259.367188 254.511719 259.992188 254.894531 260.375 C 256.4375 261.921875 258.949219 261.921875 260.496094 260.375 C 262.039062 258.832031 262.039062 256.320312 260.496094 254.777344 C 259.308594 253.589844 257.492188 253.285156 255.972656 254.015625 C 255.792969 254.101562 255.578125 254.066406 255.4375 253.925781 L 254.878906 253.367188 C 254.753906 253.242188 254.710938 253.058594 254.765625 252.890625 L 254.789062 252.816406 C 254.804688 252.761719 254.824219 252.714844 254.835938 252.660156 L 260.300781 229.726562 C 260.605469 228.441406 260.035156 227.144531 258.882812 226.5 C 257.730469 225.855469 256.324219 226.050781 255.390625 226.984375 " fill-opacity="1" fill-rule="nonzero"/><path fill="#1a181a" d="M 145.71875 258.371094 L 122.785156 252.90625 C 122.441406 252.824219 122.160156 252.546875 122.078125 252.203125 L 116.617188 229.269531 C 116.515625 228.832031 116.6875 228.4375 117.078125 228.21875 C 117.472656 228 117.894531 228.058594 118.214844 228.378906 L 146.609375 256.773438 C 146.929688 257.089844 146.984375 257.515625 146.765625 257.90625 C 146.546875 258.300781 146.152344 258.472656 145.71875 258.371094 Z M 148.003906 255.378906 L 119.609375 226.984375 C 118.671875 226.050781 117.269531 225.855469 116.117188 226.5 C 114.964844 227.144531 114.394531 228.441406 114.699219 229.726562 L 120.164062 252.660156 C 120.191406 252.777344 120.226562 252.898438 120.277344 253.03125 C 120.34375 253.203125 120.300781 253.398438 120.171875 253.527344 L 118.816406 254.882812 C 118.433594 255.265625 118.433594 255.890625 118.816406 256.277344 C 119.59375 257.050781 119.59375 258.3125 118.816406 259.089844 C 118.042969 259.863281 116.78125 259.863281 116.003906 259.089844 C 115.230469 258.3125 115.230469 257.050781 116.003906 256.277344 C 116.386719 255.890625 116.386719 255.265625 116.003906 254.882812 C 115.621094 254.496094 114.996094 254.496094 114.609375 254.882812 C 113.066406 256.425781 113.066406 258.9375 114.609375 260.484375 C 116.15625 262.027344 118.667969 262.027344 120.210938 260.484375 C 121.398438 259.296875 121.703125 257.480469 120.972656 255.960938 C 120.886719 255.78125 120.921875 255.566406 121.0625 255.425781 L 121.621094 254.867188 C 121.746094 254.742188 121.929688 254.695312 122.097656 254.753906 L 122.171875 254.777344 C 122.222656 254.792969 122.273438 254.8125 122.328125 254.824219 L 145.261719 260.285156 C 146.546875 260.59375 147.84375 260.023438 148.488281 258.871094 C 149.132812 257.714844 148.9375 256.3125 148.003906 255.378906 " fill-opacity="1" fill-rule="nonzero"/><path fill="#1a181a" d="M 116.617188 145.707031 L 122.078125 122.769531 C 122.160156 122.429688 122.441406 122.148438 122.785156 122.066406 L 145.71875 116.605469 C 146.15625 116.5 146.546875 116.671875 146.765625 117.066406 C 146.988281 117.457031 146.929688 117.882812 146.609375 118.203125 L 118.214844 146.597656 C 117.894531 146.914062 117.472656 146.972656 117.078125 146.753906 C 116.683594 146.535156 116.515625 146.140625 116.617188 145.707031 Z M 119.609375 147.992188 L 148.003906 119.59375 C 148.9375 118.660156 149.132812 117.257812 148.488281 116.105469 C 147.84375 114.953125 146.546875 114.382812 145.261719 114.6875 L 122.328125 120.148438 C 122.210938 120.179688 122.089844 120.214844 121.957031 120.265625 C 121.785156 120.332031 121.589844 120.289062 121.460938 120.160156 L 120.105469 118.804688 C 119.722656 118.421875 119.09375 118.421875 118.710938 118.804688 C 117.9375 119.582031 116.671875 119.582031 115.898438 118.804688 C 115.125 118.027344 115.125 116.769531 115.898438 115.992188 C 116.671875 115.214844 117.9375 115.214844 118.710938 115.992188 C 119.09375 116.375 119.722656 116.375 120.105469 115.992188 C 120.488281 115.605469 120.488281 114.984375 120.105469 114.597656 C 118.5625 113.054688 116.050781 113.054688 114.503906 114.597656 C 112.960938 116.140625 112.960938 118.65625 114.503906 120.199219 C 115.691406 121.386719 117.507812 121.691406 119.027344 120.957031 C 119.207031 120.871094 119.421875 120.910156 119.5625 121.050781 L 120.121094 121.609375 C 120.246094 121.734375 120.289062 121.917969 120.234375 122.085938 L 120.210938 122.160156 C 120.191406 122.210938 120.175781 122.261719 120.160156 122.316406 L 114.699219 145.25 C 114.394531 146.535156 114.964844 147.832031 116.117188 148.476562 C 117.269531 149.121094 118.675781 148.925781 119.609375 147.992188 " fill-opacity="1" fill-rule="nonzero"/><g clip-path="url(#4cba7462af)"><path fill="#1a181a" d="M 293.558594 324.003906 L 313.636719 311.648438 C 313.941406 311.464844 314.335938 311.464844 314.636719 311.648438 L 334.710938 324.003906 C 335.09375 324.238281 335.253906 324.640625 335.128906 325.074219 C 335.007812 325.503906 334.664062 325.765625 334.214844 325.765625 L 294.058594 325.765625 C 293.609375 325.765625 293.265625 325.507812 293.144531 325.074219 C 293.023438 324.636719 293.175781 324.238281 293.558594 324.003906 Z M 294.058594 327.734375 L 334.214844 327.734375 C 335.535156 327.734375 336.664062 326.878906 337.023438 325.605469 C 337.382812 324.339844 336.871094 323.019531 335.746094 322.324219 L 315.667969 309.96875 C 315.566406 309.90625 315.453125 309.847656 315.324219 309.792969 C 315.15625 309.714844 315.046875 309.546875 315.046875 309.363281 L 315.046875 307.449219 C 315.046875 306.90625 314.605469 306.460938 314.0625 306.460938 C 312.964844 306.460938 312.074219 305.570312 312.074219 304.472656 C 312.074219 303.375 312.964844 302.484375 314.0625 302.484375 C 315.15625 302.484375 316.050781 303.375 316.050781 304.472656 C 316.050781 305.015625 316.492188 305.460938 317.035156 305.460938 C 317.578125 305.460938 318.023438 305.015625 318.023438 304.472656 C 318.023438 302.289062 316.246094 300.515625 314.0625 300.515625 C 311.878906 300.515625 310.101562 302.289062 310.101562 304.472656 C 310.101562 306.152344 311.171875 307.652344 312.761719 308.207031 C 312.949219 308.273438 313.074219 308.453125 313.074219 308.652344 L 313.074219 309.441406 C 313.074219 309.617188 312.976562 309.78125 312.820312 309.859375 L 312.75 309.894531 C 312.699219 309.917969 312.652344 309.941406 312.605469 309.96875 L 292.527344 322.324219 C 291.402344 323.019531 290.886719 324.339844 291.246094 325.605469 C 291.605469 326.878906 292.738281 327.734375 294.058594 327.734375 " fill-opacity="1" fill-rule="nonzero"/></g><g clip-path="url(#27e45d18f2)"><path fill="#1a181a" d="M 166.921875 324.003906 L 187 311.648438 C 187.304688 311.464844 187.699219 311.464844 187.996094 311.648438 L 208.078125 324.003906 C 208.460938 324.238281 208.613281 324.640625 208.492188 325.074219 C 208.371094 325.503906 208.027344 325.765625 207.578125 325.765625 L 167.421875 325.765625 C 166.972656 325.765625 166.628906 325.507812 166.507812 325.074219 C 166.386719 324.636719 166.539062 324.238281 166.921875 324.003906 Z M 167.421875 327.734375 L 207.578125 327.734375 C 208.898438 327.734375 210.03125 326.878906 210.390625 325.605469 C 210.75 324.339844 210.234375 323.019531 209.109375 322.324219 L 189.03125 309.96875 C 188.929688 309.90625 188.816406 309.847656 188.6875 309.792969 C 188.519531 309.714844 188.410156 309.546875 188.410156 309.363281 L 188.410156 307.449219 C 188.410156 306.90625 187.96875 306.460938 187.425781 306.460938 C 186.328125 306.460938 185.4375 305.570312 185.4375 304.472656 C 185.4375 303.375 186.328125 302.484375 187.425781 302.484375 C 188.523438 302.484375 189.414062 303.375 189.414062 304.472656 C 189.414062 305.015625 189.855469 305.460938 190.398438 305.460938 C 190.941406 305.460938 191.386719 305.015625 191.386719 304.472656 C 191.386719 302.289062 189.609375 300.515625 187.425781 300.515625 C 185.242188 300.515625 183.464844 302.289062 183.464844 304.472656 C 183.464844 306.152344 184.535156 307.652344 186.125 308.207031 C 186.3125 308.273438 186.4375 308.453125 186.4375 308.652344 L 186.4375 309.441406 C 186.4375 309.617188 186.339844 309.78125 186.183594 309.859375 L 186.113281 309.894531 C 186.066406 309.917969 186.015625 309.941406 185.96875 309.96875 L 165.890625 322.324219 C 164.765625 323.019531 164.25 324.339844 164.609375 325.605469 C 164.96875 326.878906 166.101562 327.734375 167.421875 327.734375 " fill-opacity="1" fill-rule="nonzero"/></g><g clip-path="url(#51ee7bc01b)"><path fill="#1a181a" d="M 40.285156 324.003906 L 60.363281 311.648438 C 60.664062 311.464844 61.0625 311.464844 61.359375 311.648438 L 81.441406 324.003906 C 81.824219 324.238281 81.976562 324.640625 81.855469 325.074219 C 81.734375 325.503906 81.390625 325.765625 80.941406 325.765625 L 40.785156 325.765625 C 40.335938 325.765625 39.992188 325.507812 39.871094 325.074219 C 39.75 324.636719 39.902344 324.238281 40.285156 324.003906 Z M 40.785156 327.734375 L 80.941406 327.734375 C 82.261719 327.734375 83.394531 326.878906 83.753906 325.605469 C 84.113281 324.339844 83.597656 323.019531 82.472656 322.324219 L 62.394531 309.96875 C 62.292969 309.90625 62.179688 309.847656 62.050781 309.792969 C 61.882812 309.714844 61.773438 309.546875 61.773438 309.363281 L 61.773438 307.449219 C 61.773438 306.90625 61.332031 306.460938 60.789062 306.460938 C 59.691406 306.460938 58.800781 305.570312 58.800781 304.472656 C 58.800781 303.375 59.691406 302.484375 60.789062 302.484375 C 61.886719 302.484375 62.777344 303.375 62.777344 304.472656 C 62.777344 305.015625 63.21875 305.460938 63.761719 305.460938 C 64.304688 305.460938 64.75 305.015625 64.75 304.472656 C 64.75 302.289062 62.972656 300.515625 60.789062 300.515625 C 58.605469 300.515625 56.828125 302.289062 56.828125 304.472656 C 56.828125 306.152344 57.898438 307.652344 59.488281 308.207031 C 59.675781 308.273438 59.804688 308.453125 59.804688 308.652344 L 59.804688 309.441406 C 59.804688 309.617188 59.703125 309.78125 59.546875 309.859375 L 59.476562 309.894531 C 59.429688 309.917969 59.378906 309.941406 59.332031 309.96875 L 39.253906 322.324219 C 38.128906 323.019531 37.613281 324.339844 37.972656 325.605469 C 38.335938 326.878906 39.464844 327.734375 40.785156 327.734375 " fill-opacity="1" fill-rule="nonzero"/></g><g clip-path="url(#726489337b)"><path fill="#1a181a" d="M 293.558594 197.367188 L 313.636719 185.011719 C 313.941406 184.828125 314.335938 184.828125 314.636719 185.011719 L 334.710938 197.367188 C 335.09375 197.601562 335.253906 198.003906 335.128906 198.433594 C 335.007812 198.867188 334.664062 199.125 334.214844 199.125 L 294.058594 199.125 C 293.609375 199.125 293.265625 198.867188 293.144531 198.4375 C 293.023438 198 293.175781 197.601562 293.558594 197.367188 Z M 294.058594 201.097656 L 334.214844 201.097656 C 335.535156 201.097656 336.664062 200.242188 337.023438 198.972656 C 337.382812 197.699219 336.871094 196.382812 335.746094 195.6875 L 315.667969 183.335938 C 315.566406 183.269531 315.453125 183.210938 315.324219 183.15625 C 315.15625 183.078125 315.046875 182.910156 315.046875 182.726562 L 315.046875 180.8125 C 315.046875 180.269531 314.605469 179.824219 314.0625 179.824219 C 312.964844 179.824219 312.074219 178.933594 312.074219 177.835938 C 312.074219 176.738281 312.964844 175.847656 314.0625 175.847656 C 315.15625 175.847656 316.050781 176.738281 316.050781 177.835938 C 316.050781 178.378906 316.492188 178.824219 317.035156 178.824219 C 317.578125 178.824219 318.023438 178.378906 318.023438 177.835938 C 318.023438 175.652344 316.246094 173.878906 314.0625 173.878906 C 311.878906 173.878906 310.101562 175.652344 310.101562 177.835938 C 310.101562 179.515625 311.171875 181.015625 312.761719 181.570312 C 312.949219 181.636719 313.074219 181.816406 313.074219 182.015625 L 313.074219 182.804688 C 313.074219 182.980469 312.976562 183.144531 312.820312 183.222656 L 312.75 183.257812 C 312.699219 183.28125 312.652344 183.304688 312.605469 183.335938 L 292.527344 195.6875 C 291.402344 196.382812 290.886719 197.699219 291.246094 198.972656 C 291.605469 200.242188 292.738281 201.097656 294.058594 201.097656 " fill-opacity="1" fill-rule="nonzero"/></g><path fill="#1a181a" d="M 166.921875 197.367188 L 187 185.011719 C 187.304688 184.828125 187.699219 184.828125 187.996094 185.011719 L 208.078125 197.367188 C 208.460938 197.601562 208.613281 198.003906 208.492188 198.433594 C 208.371094 198.867188 208.027344 199.125 207.578125 199.125 L 167.421875 199.125 C 166.972656 199.125 166.628906 198.867188 166.507812 198.4375 C 166.386719 198 166.539062 197.601562 166.921875 197.367188 Z M 167.421875 201.097656 L 207.578125 201.097656 C 208.898438 201.097656 210.03125 200.242188 210.390625 198.972656 C 210.75 197.699219 210.234375 196.382812 209.109375 195.6875 L 189.03125 183.335938 C 188.929688 183.269531 188.816406 183.210938 188.6875 183.15625 C 188.519531 183.078125 188.410156 182.910156 188.410156 182.726562 L 188.410156 180.8125 C 188.410156 180.269531 187.96875 179.824219 187.425781 179.824219 C 186.328125 179.824219 185.4375 178.933594 185.4375 177.835938 C 185.4375 176.738281 186.328125 175.847656 187.425781 175.847656 C 188.523438 175.847656 189.414062 176.738281 189.414062 177.835938 C 189.414062 178.378906 189.855469 178.824219 190.398438 178.824219 C 190.941406 178.824219 191.386719 178.378906 191.386719 177.835938 C 191.386719 175.652344 189.609375 173.878906 187.425781 173.878906 C 185.242188 173.878906 183.464844 175.652344 183.464844 177.835938 C 183.464844 179.515625 184.535156 181.015625 186.125 181.570312 C 186.3125 181.636719 186.4375 181.816406 186.4375 182.015625 L 186.4375 182.804688 C 186.4375 182.980469 186.339844 183.144531 186.183594 183.222656 L 186.113281 183.257812 C 186.066406 183.28125 186.015625 183.304688 185.96875 183.335938 L 165.890625 195.6875 C 164.765625 196.382812 164.25 197.699219 164.609375 198.972656 C 164.96875 200.242188 166.101562 201.097656 167.421875 201.097656 " fill-opacity="1" fill-rule="nonzero"/><g clip-path="url(#c55669ef2b)"><path fill="#1a181a" d="M 40.285156 197.367188 L 60.363281 185.011719 C 60.664062 184.828125 61.0625 184.828125 61.359375 185.011719 L 81.441406 197.367188 C 81.824219 197.601562 81.976562 198.003906 81.855469 198.433594 C 81.734375 198.867188 81.390625 199.125 80.941406 199.125 L 40.785156 199.125 C 40.335938 199.125 39.992188 198.867188 39.871094 198.4375 C 39.75 198 39.902344 197.601562 40.285156 197.367188 Z M 40.785156 201.097656 L 80.941406 201.097656 C 82.261719 201.097656 83.394531 200.242188 83.753906 198.972656 C 84.113281 197.699219 83.597656 196.382812 82.472656 195.6875 L 62.394531 183.335938 C 62.292969 183.269531 62.179688 183.210938 62.050781 183.15625 C 61.882812 183.078125 61.773438 182.910156 61.773438 182.726562 L 61.773438 180.8125 C 61.773438 180.269531 61.332031 179.824219 60.789062 179.824219 C 59.691406 179.824219 58.800781 178.933594 58.800781 177.835938 C 58.800781 176.738281 59.691406 175.847656 60.789062 175.847656 C 61.886719 175.847656 62.777344 176.738281 62.777344 177.835938 C 62.777344 178.378906 63.21875 178.824219 63.761719 178.824219 C 64.304688 178.824219 64.75 178.378906 64.75 177.835938 C 64.75 175.652344 62.972656 173.878906 60.789062 173.878906 C 58.605469 173.878906 56.828125 175.652344 56.828125 177.835938 C 56.828125 179.515625 57.898438 181.015625 59.488281 181.570312 C 59.675781 181.636719 59.804688 181.816406 59.804688 182.015625 L 59.804688 182.804688 C 59.804688 182.980469 59.703125 183.144531 59.546875 183.222656 L 59.476562 183.257812 C 59.429688 183.28125 59.378906 183.304688 59.332031 183.335938 L 39.253906 195.6875 C 38.128906 196.382812 37.613281 197.699219 37.972656 198.972656 C 38.335938 200.242188 39.464844 201.097656 40.785156 201.097656 " fill-opacity="1" fill-rule="nonzero"/></g><g clip-path="url(#2dfd2e3596)"><path fill="#1a181a" d="M 293.558594 70.730469 L 313.636719 58.375 C 313.941406 58.191406 314.335938 58.191406 314.636719 58.375 L 334.710938 70.730469 C 335.09375 70.96875 335.253906 71.367188 335.128906 71.800781 C 335.007812 72.230469 334.664062 72.488281 334.214844 72.488281 L 294.058594 72.488281 C 293.609375 72.488281 293.265625 72.230469 293.144531 71.800781 C 293.023438 71.363281 293.175781 70.964844 293.558594 70.730469 Z M 294.058594 74.460938 L 334.214844 74.460938 C 335.535156 74.460938 336.664062 73.605469 337.023438 72.335938 C 337.382812 71.0625 336.871094 69.746094 335.746094 69.050781 L 315.667969 56.699219 C 315.566406 56.632812 315.453125 56.574219 315.324219 56.515625 C 315.15625 56.441406 315.046875 56.273438 315.046875 56.089844 L 315.046875 54.175781 C 315.046875 53.628906 314.605469 53.1875 314.0625 53.1875 C 312.964844 53.1875 312.074219 52.296875 312.074219 51.199219 C 312.074219 50.105469 312.964844 49.210938 314.0625 49.210938 C 315.15625 49.210938 316.050781 50.105469 316.050781 51.199219 C 316.050781 51.742188 316.492188 52.1875 317.035156 52.1875 C 317.578125 52.1875 318.023438 51.742188 318.023438 51.199219 C 318.023438 49.019531 316.246094 47.242188 314.0625 47.242188 C 311.878906 47.242188 310.101562 49.019531 310.101562 51.199219 C 310.101562 52.878906 311.171875 54.378906 312.761719 54.9375 C 312.949219 55.003906 313.074219 55.179688 313.074219 55.378906 L 313.074219 56.167969 C 313.074219 56.34375 312.976562 56.507812 312.820312 56.585938 L 312.75 56.621094 C 312.699219 56.644531 312.652344 56.667969 312.605469 56.699219 L 292.527344 69.050781 C 291.402344 69.746094 290.886719 71.0625 291.246094 72.335938 C 291.605469 73.605469 292.738281 74.460938 294.058594 74.460938 " fill-opacity="1" fill-rule="nonzero"/></g><g clip-path="url(#ba057f94a3)"><path fill="#1a181a" d="M 166.921875 70.730469 L 187 58.375 C 187.304688 58.191406 187.699219 58.191406 187.996094 58.375 L 208.078125 70.730469 C 208.460938 70.96875 208.613281 71.367188 208.492188 71.800781 C 208.371094 72.230469 208.027344 72.488281 207.578125 72.488281 L 167.421875 72.488281 C 166.972656 72.488281 166.628906 72.230469 166.507812 71.800781 C 166.386719 71.363281 166.539062 70.964844 166.921875 70.730469 Z M 167.421875 74.460938 L 207.578125 74.460938 C 208.898438 74.460938 210.03125 73.605469 210.390625 72.335938 C 210.75 71.0625 210.234375 69.746094 209.109375 69.050781 L 189.03125 56.699219 C 188.929688 56.632812 188.816406 56.574219 188.6875 56.515625 C 188.519531 56.441406 188.410156 56.273438 188.410156 56.089844 L 188.410156 54.175781 C 188.410156 53.628906 187.96875 53.1875 187.425781 53.1875 C 186.328125 53.1875 185.4375 52.296875 185.4375 51.199219 C 185.4375 50.105469 186.328125 49.210938 187.425781 49.210938 C 188.523438 49.210938 189.414062 50.105469 189.414062 51.199219 C 189.414062 51.742188 189.855469 52.1875 190.398438 52.1875 C 190.941406 52.1875 191.386719 51.742188 191.386719 51.199219 C 191.386719 49.019531 189.609375 47.242188 187.425781 47.242188 C 185.242188 47.242188 183.464844 49.019531 183.464844 51.199219 C 183.464844 52.878906 184.535156 54.378906 186.125 54.9375 C 186.3125 55.003906 186.4375 55.179688 186.4375 55.378906 L 186.4375 56.167969 C 186.4375 56.34375 186.339844 56.507812 186.183594 56.585938 L 186.113281 56.621094 C 186.066406 56.644531 186.015625 56.667969 185.96875 56.699219 L 165.890625 69.050781 C 164.765625 69.746094 164.25 71.0625 164.609375 72.335938 C 164.96875 73.605469 166.101562 74.460938 167.421875 74.460938 " fill-opacity="1" fill-rule="nonzero"/></g><g clip-path="url(#c0bf93b632)"><path fill="#1a181a" d="M 40.285156 70.730469 L 60.363281 58.375 C 60.664062 58.191406 61.0625 58.191406 61.359375 58.375 L 81.441406 70.730469 C 81.824219 70.96875 81.976562 71.367188 81.855469 71.800781 C 81.734375 72.230469 81.390625 72.488281 80.941406 72.488281 L 40.785156 72.488281 C 40.335938 72.488281 39.992188 72.230469 39.871094 71.800781 C 39.75 71.363281 39.902344 70.964844 40.285156 70.730469 Z M 40.785156 74.460938 L 80.941406 74.460938 C 82.261719 74.460938 83.394531 73.605469 83.753906 72.335938 C 84.113281 71.0625 83.597656 69.746094 82.472656 69.050781 L 62.394531 56.699219 C 62.292969 56.632812 62.179688 56.574219 62.050781 56.515625 C 61.882812 56.441406 61.773438 56.273438 61.773438 56.089844 L 61.773438 54.175781 C 61.773438 53.628906 61.332031 53.1875 60.789062 53.1875 C 59.691406 53.1875 58.800781 52.296875 58.800781 51.199219 C 58.800781 50.105469 59.691406 49.210938 60.789062 49.210938 C 61.886719 49.210938 62.777344 50.105469 62.777344 51.199219 C 62.777344 51.742188 63.21875 52.1875 63.761719 52.1875 C 64.304688 52.1875 64.75 51.742188 64.75 51.199219 C 64.75 49.019531 62.972656 47.242188 60.789062 47.242188 C 58.605469 47.242188 56.828125 49.019531 56.828125 51.199219 C 56.828125 52.878906 57.898438 54.378906 59.488281 54.9375 C 59.675781 55.003906 59.804688 55.179688 59.804688 55.378906 L 59.804688 56.167969 C 59.804688 56.34375 59.703125 56.507812 59.546875 56.585938 L 59.476562 56.621094 C 59.429688 56.644531 59.378906 56.667969 59.332031 56.699219 L 39.253906 69.050781 C 38.128906 69.746094 37.613281 71.0625 37.972656 72.335938 C 38.335938 73.605469 39.464844 74.460938 40.785156 74.460938 " fill-opacity="1" fill-rule="nonzero"/></g></svg>